<?xml version="1.0" encoding="UTF-8"?><svg xmlns="http://www.w3.org/2000/svg" xmlns:xlink="http://www.w3.org/1999/xlink" fill-opacity="1" color-rendering="auto" color-interpolation="auto" text-rendering="auto" stroke="black" stroke-linecap="square" width="1439" stroke-miterlimit="10" shape-rendering="auto" stroke-opacity="1" fill="black" stroke-dasharray="none" font-weight="normal" stroke-width="1" height="560" font-family="'Dialog'" font-style="normal" stroke-linejoin="miter" font-size="12" stroke-dashoffset="0" image-rendering="auto">
  <!--Generated by ySVG-->
  <defs id="genericDefs"/>
  <g>
    <defs id="defs1">
      <clipPath clipPathUnits="userSpaceOnUse" id="clipPath1">
        <path d="M0 0 L1439 0 L1439 560 L0 560 L0 0 Z"/>
      </clipPath>
    </defs>
    <g id="y.node.0">
      <g fill="white" transform="matrix(0.9655,0,0,0.9655,24.1379,9.6552)" stroke="white">
        <rect width="95" x="711" height="69" y="489" stroke="none"/>
      </g>
      <g transform="matrix(0.9655,0,0,0.9655,24.1379,9.6552)">
        <rect fill="none" width="95" x="711" height="69" y="489"/>
      </g>
      <g id="bla">
        <g font-family="sans-serif" transform="matrix(0.9655,0,0,0.9655,24.1379,9.6552)">
          <text xml:space="preserve" x="743.5" y="507.6387" stroke="none">main</text>
          <text xml:space="preserve" x="721.5" y="521.6074" stroke="none">PROG: 5540</text>
          <text xml:space="preserve" x="719.5" y="535.5762" stroke="none">STACK: 2160</text>
          <text xml:space="preserve" x="718" y="549.5449" stroke="none">FRAME: 2160</text>
        </g>
      </g>
    </g>
    <g id="y.node.1">
      <g fill="white" transform="matrix(0.9655,0,0,0.9655,24.1379,9.6552)" stroke="white">
        <rect width="95" x="308" height="69" y="329" stroke="none"/>
        <rect x="308" y="329" fill="none" width="95" height="69" stroke="black"/>
      </g>
      <g id="bla">
        <g font-family="sans-serif" transform="matrix(0.9655,0,0,0.9655,24.1379,9.6552)">
          <text xml:space="preserve" x="334.5" y="347.7637" stroke="none">crcu16</text>
          <text xml:space="preserve" x="323" y="361.7324" stroke="none">PROG: 644</text>
          <text xml:space="preserve" x="329" y="375.7012" stroke="none">STACK: 0</text>
          <text xml:space="preserve" x="315.5" y="389.6699" stroke="none">FRAME: 2160</text>
        </g>
      </g>
    </g>
    <g id="y.node.2">
      <g fill="white" transform="matrix(0.9655,0,0,0.9655,24.1379,9.6552)" stroke="white">
        <rect width="147" x="115" height="69" y="109" stroke="none"/>
        <rect x="115" y="109" fill="none" width="147" height="69" stroke="black"/>
      </g>
      <g id="bla">
        <g font-family="sans-serif" transform="matrix(0.9655,0,0,0.9655,24.1379,9.6552)">
          <text xml:space="preserve" x="122" y="128.0137" stroke="none">core_state_transition</text>
          <text xml:space="preserve" x="155.5" y="141.9824" stroke="none">PROG: 792</text>
          <text xml:space="preserve" x="161.5" y="155.9512" stroke="none">STACK: 0</text>
          <text xml:space="preserve" x="148" y="169.9199" stroke="none">FRAME: 2416</text>
        </g>
      </g>
    </g>
    <g id="y.node.3">
      <g fill="white" transform="matrix(0.9655,0,0,0.9655,24.1379,9.6552)" stroke="white">
        <rect width="95" x="70" height="69" y="219" stroke="none"/>
        <rect x="70" y="219" fill="none" width="95" height="69" stroke="black"/>
      </g>
      <g id="bla">
        <g font-family="sans-serif" transform="matrix(0.9655,0,0,0.9655,24.1379,9.6552)">
          <text xml:space="preserve" x="89" y="237.8887" stroke="none">calc_func</text>
          <text xml:space="preserve" x="81" y="251.8574" stroke="none">PROG: 8020</text>
          <text xml:space="preserve" x="83" y="265.8262" stroke="none">STACK: 176</text>
          <text xml:space="preserve" x="77.5" y="279.7949" stroke="none">FRAME: 2416</text>
        </g>
      </g>
    </g>
    <g id="y.node.4">
      <g fill="white" transform="matrix(0.9655,0,0,0.9655,24.1379,9.6552)" stroke="white">
        <rect width="95" x="193" height="69" y="329" stroke="none"/>
        <rect x="193" y="329" fill="none" width="95" height="69" stroke="black"/>
      </g>
      <g id="bla">
        <g font-family="sans-serif" transform="matrix(0.9655,0,0,0.9655,24.1379,9.6552)">
          <text xml:space="preserve" x="216" y="347.7637" stroke="none">memset</text>
          <text xml:space="preserve" x="208" y="361.7324" stroke="none">PROG: 220</text>
          <text xml:space="preserve" x="214" y="375.7012" stroke="none">STACK: 0</text>
          <text xml:space="preserve" x="200.5" y="389.6699" stroke="none">FRAME: 2160</text>
        </g>
      </g>
    </g>
    <g id="y.node.5">
      <g fill="white" transform="matrix(0.9655,0,0,0.9655,24.1379,9.6552)" stroke="white">
        <rect width="111" x="62" height="69" y="329" stroke="none"/>
        <rect x="62" y="329" fill="none" width="111" height="69" stroke="black"/>
      </g>
      <g id="bla">
        <g font-family="sans-serif" transform="matrix(0.9655,0,0,0.9655,24.1379,9.6552)">
          <text xml:space="preserve" x="69.5" y="347.7637" stroke="none">core_bench_list</text>
          <text xml:space="preserve" x="81" y="361.7324" stroke="none">PROG: 2280</text>
          <text xml:space="preserve" x="87" y="375.7012" stroke="none">STACK: 80</text>
          <text xml:space="preserve" x="77.5" y="389.6699" stroke="none">FRAME: 2240</text>
        </g>
      </g>
    </g>
    <g id="y.node.6">
      <g fill="white" transform="matrix(0.9655,0,0,0.9655,24.1379,9.6552)" stroke="white">
        <rect width="95" x="423" height="69" y="329" stroke="none"/>
        <rect x="423" y="329" fill="none" width="95" height="69" stroke="black"/>
      </g>
      <g id="bla">
        <g font-family="sans-serif" transform="matrix(0.9655,0,0,0.9655,24.1379,9.6552)">
          <text xml:space="preserve" x="457" y="347.7637" stroke="none">puts</text>
          <text xml:space="preserve" x="442" y="361.7324" stroke="none">PROG: 16</text>
          <text xml:space="preserve" x="444" y="375.7012" stroke="none">STACK: 0</text>
          <text xml:space="preserve" x="430.5" y="389.6699" stroke="none">FRAME: 2160</text>
        </g>
      </g>
    </g>
    <g id="y.node.7">
      <g fill="white" transform="matrix(0.9655,0,0,0.9655,24.1379,9.6552)" stroke="white">
        <rect width="95" x="538" height="69" y="329" stroke="none"/>
        <rect x="538" y="329" fill="none" width="95" height="69" stroke="black"/>
      </g>
      <g id="bla">
        <g font-family="sans-serif" transform="matrix(0.9655,0,0,0.9655,24.1379,9.6552)">
          <text xml:space="preserve" x="569.5" y="347.7637" stroke="none">printf</text>
          <text xml:space="preserve" x="557" y="361.7324" stroke="none">PROG: 80</text>
          <text xml:space="preserve" x="555" y="375.7012" stroke="none">STACK: 64</text>
          <text xml:space="preserve" x="545.5" y="389.6699" stroke="none">FRAME: 2224</text>
        </g>
      </g>
    </g>
    <g id="y.node.8">
      <g fill="white" transform="matrix(0.9655,0,0,0.9655,24.1379,9.6552)" stroke="white">
        <rect width="95" x="653" height="69" y="329" stroke="none"/>
        <rect x="653" y="329" fill="none" width="95" height="69" stroke="black"/>
      </g>
      <g id="bla">
        <g font-family="sans-serif" transform="matrix(0.9655,0,0,0.9655,24.1379,9.6552)">
          <text xml:space="preserve" x="670" y="347.7637" stroke="none">__floatsidf</text>
          <text xml:space="preserve" x="668" y="361.7324" stroke="none">PROG: 168</text>
          <text xml:space="preserve" x="670" y="375.7012" stroke="none">STACK: 16</text>
          <text xml:space="preserve" x="660.5" y="389.6699" stroke="none">FRAME: 2176</text>
        </g>
      </g>
    </g>
    <g id="y.node.9">
      <g fill="white" transform="matrix(0.9655,0,0,0.9655,24.1379,9.6552)" stroke="white">
        <rect width="95" x="768" height="69" y="329" stroke="none"/>
        <rect x="768" y="329" fill="none" width="95" height="69" stroke="black"/>
      </g>
      <g id="bla">
        <g font-family="sans-serif" transform="matrix(0.9655,0,0,0.9655,24.1379,9.6552)">
          <text xml:space="preserve" x="791.5" y="347.7637" stroke="none">__divdf3</text>
          <text xml:space="preserve" x="779" y="361.7324" stroke="none">PROG: 1760</text>
          <text xml:space="preserve" x="785" y="375.7012" stroke="none">STACK: 48</text>
          <text xml:space="preserve" x="775.5" y="389.6699" stroke="none">FRAME: 2208</text>
        </g>
      </g>
    </g>
    <g id="y.node.10">
      <g fill="white" transform="matrix(0.9655,0,0,0.9655,24.1379,9.6552)" stroke="white">
        <rect width="95" x="883" height="69" y="329" stroke="none"/>
        <rect x="883" y="329" fill="none" width="95" height="69" stroke="black"/>
      </g>
      <g id="bla">
        <g font-family="sans-serif" transform="matrix(0.9655,0,0,0.9655,24.1379,9.6552)">
          <text xml:space="preserve" x="907" y="347.7637" stroke="none">__gedf2</text>
          <text xml:space="preserve" x="898" y="361.7324" stroke="none">PROG: 228</text>
          <text xml:space="preserve" x="904" y="375.7012" stroke="none">STACK: 0</text>
          <text xml:space="preserve" x="890.5" y="389.6699" stroke="none">FRAME: 2160</text>
        </g>
      </g>
    </g>
    <g id="y.node.11">
      <g fill="white" transform="matrix(0.9655,0,0,0.9655,24.1379,9.6552)" stroke="white">
        <rect width="95" x="998" height="69" y="329" stroke="none"/>
        <rect x="998" y="329" fill="none" width="95" height="69" stroke="black"/>
      </g>
      <g id="bla">
        <g font-family="sans-serif" transform="matrix(0.9655,0,0,0.9655,24.1379,9.6552)">
          <text xml:space="preserve" x="1007" y="347.7637" stroke="none">__floatunsidf</text>
          <text xml:space="preserve" x="1013" y="361.7324" stroke="none">PROG: 128</text>
          <text xml:space="preserve" x="1015" y="375.7012" stroke="none">STACK: 16</text>
          <text xml:space="preserve" x="1005.5" y="389.6699" stroke="none">FRAME: 2176</text>
        </g>
      </g>
    </g>
    <g id="y.node.12">
      <g fill="white" transform="matrix(0.9655,0,0,0.9655,24.1379,9.6552)" stroke="white">
        <rect width="95" x="1113" height="69" y="329" stroke="none"/>
        <rect x="1113" y="329" fill="none" width="95" height="69" stroke="black"/>
      </g>
      <g id="bla">
        <g font-family="sans-serif" transform="matrix(0.9655,0,0,0.9655,24.1379,9.6552)">
          <text xml:space="preserve" x="1139.5" y="347.7637" stroke="none">__ledf2</text>
          <text xml:space="preserve" x="1128" y="361.7324" stroke="none">PROG: 228</text>
          <text xml:space="preserve" x="1134" y="375.7012" stroke="none">STACK: 0</text>
          <text xml:space="preserve" x="1120.5" y="389.6699" stroke="none">FRAME: 2160</text>
        </g>
      </g>
    </g>
    <g id="y.node.13">
      <g fill="white" transform="matrix(0.9655,0,0,0.9655,24.1379,9.6552)" stroke="white">
        <rect width="95" x="1228" height="69" y="329" stroke="none"/>
        <rect x="1228" y="329" fill="none" width="95" height="69" stroke="black"/>
      </g>
      <g id="bla">
        <g font-family="sans-serif" transform="matrix(0.9655,0,0,0.9655,24.1379,9.6552)">
          <text xml:space="preserve" x="1241" y="347.7637" stroke="none">__fixunsdfsi</text>
          <text xml:space="preserve" x="1243" y="361.7324" stroke="none">PROG: 124</text>
          <text xml:space="preserve" x="1249" y="375.7012" stroke="none">STACK: 0</text>
          <text xml:space="preserve" x="1235.5" y="389.6699" stroke="none">FRAME: 2160</text>
        </g>
      </g>
    </g>
    <g id="y.node.14">
      <g fill="white" transform="matrix(0.9655,0,0,0.9655,24.1379,9.6552)" stroke="white">
        <rect width="95" x="1343" height="69" y="329" stroke="none"/>
        <rect x="1343" y="329" fill="none" width="95" height="69" stroke="black"/>
      </g>
      <g id="bla">
        <g font-family="sans-serif" transform="matrix(0.9655,0,0,0.9655,24.1379,9.6552)">
          <text xml:space="preserve" x="1366.5" y="347.7637" stroke="none">putchar</text>
          <text xml:space="preserve" x="1362" y="361.7324" stroke="none">PROG: 24</text>
          <text xml:space="preserve" x="1364" y="375.7012" stroke="none">STACK: 0</text>
          <text xml:space="preserve" x="1350.5" y="389.6699" stroke="none">FRAME: 2160</text>
        </g>
      </g>
    </g>
    <g id="y.node.15">
      <g fill="rgb(196,196,196)" transform="matrix(0.9655,0,0,0.9655,24.1379,9.6552)" stroke="rgb(196,196,196)">
        <rect width="95" x="193" height="69" y="219" stroke="none"/>
        <rect x="193" y="219" fill="none" width="95" height="69" stroke="black"/>
      </g>
      <g id="bla">
        <g font-family="sans-serif" transform="matrix(0.9655,0,0,0.9655,24.1379,9.6552)">
          <text xml:space="preserve" x="201" y="237.8887" stroke="none">__unknown__</text>
          <text xml:space="preserve" x="216" y="251.8574" stroke="none">PROG: 0</text>
          <text xml:space="preserve" x="214" y="265.8262" stroke="none">STACK: 0</text>
          <text xml:space="preserve" x="200.5" y="279.7949" stroke="none">FRAME: 2160</text>
        </g>
      </g>
    </g>
    <g id="y.node.16">
      <g fill="white" transform="matrix(0.9655,0,0,0.9655,24.1379,9.6552)" stroke="white">
        <rect width="95" x="653" height="69" y="219" stroke="none"/>
        <rect x="653" y="219" fill="none" width="95" height="69" stroke="black"/>
      </g>
      <g id="bla">
        <g font-family="sans-serif" transform="matrix(0.9655,0,0,0.9655,24.1379,9.6552)">
          <text xml:space="preserve" x="678.5" y="237.8887" stroke="none">__clzsi2</text>
          <text xml:space="preserve" x="672" y="251.8574" stroke="none">PROG: 72</text>
          <text xml:space="preserve" x="674" y="265.8262" stroke="none">STACK: 0</text>
          <text xml:space="preserve" x="660.5" y="279.7949" stroke="none">FRAME: 2176</text>
        </g>
      </g>
    </g>
    <g id="y.node.17">
      <g fill="white" transform="matrix(0.9655,0,0,0.9655,24.1379,9.6552)" stroke="white">
        <rect width="95" x="0" height="69" y="109" stroke="none"/>
        <rect x="0" y="109" fill="none" width="95" height="69" stroke="black"/>
      </g>
      <g id="bla">
        <g font-family="sans-serif" transform="matrix(0.9655,0,0,0.9655,24.1379,9.6552)">
          <text xml:space="preserve" x="22.5" y="128.0137" stroke="none">memset</text>
          <text xml:space="preserve" x="14.5" y="141.9824" stroke="none">PROG: 220</text>
          <text xml:space="preserve" x="20.5" y="155.9512" stroke="none">STACK: 0</text>
          <text xml:space="preserve" x="7" y="169.9199" stroke="none">FRAME: 2416</text>
        </g>
      </g>
    </g>
    <g id="y.node.18">
      <g fill="rgb(196,196,196)" transform="matrix(0.9655,0,0,0.9655,24.1379,9.6552)" stroke="rgb(196,196,196)">
        <rect width="95" x="0" height="69" y="0" stroke="none"/>
        <rect x="0" y="0" fill="none" width="95" height="69" stroke="black"/>
      </g>
      <g id="bla">
        <g font-family="sans-serif" transform="matrix(0.9655,0,0,0.9655,24.1379,9.6552)">
          <text xml:space="preserve" x="7.5" y="18.1387" stroke="none">__unknown__</text>
          <text xml:space="preserve" x="22.5" y="32.1074" stroke="none">PROG: 0</text>
          <text xml:space="preserve" x="20.5" y="46.0762" stroke="none">STACK: 0</text>
          <text xml:space="preserve" x="7" y="60.0449" stroke="none">FRAME: 2416</text>
        </g>
      </g>
    </g>
    <g id="y.node.19">
      <g fill="white" transform="matrix(0.9655,0,0,0.9655,24.1379,9.6552)" stroke="white">
        <rect width="95" x="768" height="69" y="219" stroke="none"/>
        <rect x="768" y="219" fill="none" width="95" height="69" stroke="black"/>
      </g>
      <g id="bla">
        <g font-family="sans-serif" transform="matrix(0.9655,0,0,0.9655,24.1379,9.6552)">
          <text xml:space="preserve" x="793.5" y="237.8887" stroke="none">__clzsi2</text>
          <text xml:space="preserve" x="787" y="251.8574" stroke="none">PROG: 72</text>
          <text xml:space="preserve" x="789" y="265.8262" stroke="none">STACK: 0</text>
          <text xml:space="preserve" x="775.5" y="279.7949" stroke="none">FRAME: 2208</text>
        </g>
      </g>
    </g>
    <g id="y.node.20">
      <g fill="white" transform="matrix(0.9655,0,0,0.9655,24.1379,9.6552)" stroke="white">
        <rect width="95" x="998" height="69" y="219" stroke="none"/>
        <rect x="998" y="219" fill="none" width="95" height="69" stroke="black"/>
      </g>
      <g id="bla">
        <g font-family="sans-serif" transform="matrix(0.9655,0,0,0.9655,24.1379,9.6552)">
          <text xml:space="preserve" x="1023.5" y="237.8887" stroke="none">__clzsi2</text>
          <text xml:space="preserve" x="1017" y="251.8574" stroke="none">PROG: 72</text>
          <text xml:space="preserve" x="1019" y="265.8262" stroke="none">STACK: 0</text>
          <text xml:space="preserve" x="1005.5" y="279.7949" stroke="none">FRAME: 2176</text>
        </g>
      </g>
    </g>
    <g id="y.edge.0">
      <g stroke-miterlimit="1.45" transform="matrix(0.9655,0,0,0.9655,24.1379,9.6552)" stroke-linecap="butt">
        <path fill="none" d="M722.875 489.4707 L722.875 459.5 L241 459.5 L241 407.5293"/>
        <path d="M241 399.5293 L236 411.5293 L241 408.5293 L246 411.5293 Z" stroke="none"/>
      </g>
    </g>
    <g id="y.edge.1">
      <g fill="red" stroke-miterlimit="1.45" transform="matrix(0.9655,0,0,0.9655,24.1379,9.6552)" stroke-linecap="butt" stroke="red">
        <path fill="none" d="M714.9583 489.4609 L714.9583 469.5 L118 469.5 L118 407.5342"/>
        <path d="M118 399.5342 L113 411.5342 L118 408.5342 L123 411.5342 Z" stroke="none"/>
      </g>
    </g>
    <g id="y.edge.2">
      <g stroke-miterlimit="1.45" transform="matrix(0.9655,0,0,0.9655,24.1379,9.6552)" stroke-linecap="butt">
        <path fill="none" d="M730.7917 489.4609 L730.7917 449.5 L356 449.5 L356 407.5488"/>
        <path d="M356 399.5488 L351 411.5488 L356 408.5488 L361 411.5488 Z" stroke="none"/>
      </g>
    </g>
    <g id="y.edge.3">
      <g stroke-miterlimit="1.45" transform="matrix(0.9655,0,0,0.9655,24.1379,9.6552)" stroke-linecap="butt">
        <path fill="none" d="M738.7083 489.4512 L738.7083 439.5 L471 439.5 L471 407.5391"/>
        <path d="M471 399.5391 L466 411.5391 L471 408.5391 L476 411.5391 Z" stroke="none"/>
      </g>
    </g>
    <g id="y.edge.4">
      <g stroke-miterlimit="1.45" transform="matrix(0.9655,0,0,0.9655,24.1379,9.6552)" stroke-linecap="butt">
        <path fill="none" d="M746.625 489.4707 L746.625 429.5 L586 429.5 L586 407.5293"/>
        <path d="M586 399.5293 L581 411.5293 L586 408.5293 L591 411.5293 Z" stroke="none"/>
      </g>
    </g>
    <g id="y.edge.5">
      <g stroke-miterlimit="1.45" transform="matrix(0.9655,0,0,0.9655,24.1379,9.6552)" stroke-linecap="butt">
        <path fill="none" d="M754.5417 489.4658 L754.5417 419.5 L701 419.5 L701 407.5391"/>
        <path d="M701 399.5391 L696 411.5391 L701 408.5391 L706 411.5391 Z" stroke="none"/>
      </g>
    </g>
    <g id="y.edge.6">
      <g stroke-miterlimit="1.45" transform="matrix(0.9655,0,0,0.9655,24.1379,9.6552)" stroke-linecap="butt">
        <path fill="none" d="M762.4583 489.4658 L762.4583 419.5 L816 419.5 L816 407.5391"/>
        <path d="M816 399.5391 L811 411.5391 L816 408.5391 L821 411.5391 Z" stroke="none"/>
      </g>
    </g>
    <g id="y.edge.7">
      <g stroke-miterlimit="1.45" transform="matrix(0.9655,0,0,0.9655,24.1379,9.6552)" stroke-linecap="butt">
        <path fill="none" d="M770.375 489.4707 L770.375 429.5 L931 429.5 L931 407.5293"/>
        <path d="M931 399.5293 L926 411.5293 L931 408.5293 L936 411.5293 Z" stroke="none"/>
      </g>
    </g>
    <g id="y.edge.8">
      <g stroke-miterlimit="1.45" transform="matrix(0.9655,0,0,0.9655,24.1379,9.6552)" stroke-linecap="butt">
        <path fill="none" d="M778.2917 489.4512 L778.2917 439.5 L1046 439.5 L1046 407.5391"/>
        <path d="M1046 399.5391 L1041 411.5391 L1046 408.5391 L1051 411.5391 Z" stroke="none"/>
      </g>
    </g>
    <g id="y.edge.9">
      <g stroke-miterlimit="1.45" transform="matrix(0.9655,0,0,0.9655,24.1379,9.6552)" stroke-linecap="butt">
        <path fill="none" d="M786.2083 489.4609 L786.2083 449.5 L1161 449.5 L1161 407.5488"/>
        <path d="M1161 399.5488 L1156 411.5488 L1161 408.5488 L1166 411.5488 Z" stroke="none"/>
      </g>
    </g>
    <g id="y.edge.10">
      <g stroke-miterlimit="1.45" transform="matrix(0.9655,0,0,0.9655,24.1379,9.6552)" stroke-linecap="butt">
        <path fill="none" d="M794.125 489.4707 L794.125 459.5 L1276 459.5 L1276 407.5293"/>
        <path d="M1276 399.5293 L1271 411.5293 L1276 408.5293 L1281 411.5293 Z" stroke="none"/>
      </g>
    </g>
    <g id="y.edge.11">
      <g stroke-miterlimit="1.45" transform="matrix(0.9655,0,0,0.9655,24.1379,9.6552)" stroke-linecap="butt">
        <path fill="none" d="M802.0417 489.4609 L802.0417 469.5 L1391 469.5 L1391 407.5342"/>
        <path d="M1391 399.5342 L1386 411.5342 L1391 408.5342 L1396 411.5342 Z" stroke="none"/>
      </g>
    </g>
    <g id="y.edge.12">
      <g stroke-miterlimit="1.45" transform="matrix(0.9655,0,0,0.9655,24.1379,9.6552)" stroke-linecap="butt">
        <path fill="none" d="M141.75 219.7109 L141.75 199.75 L188.5 199.75 L188.5 187.7891"/>
        <path d="M188.5 179.7891 L183.5 191.7891 L188.5 188.7891 L193.5 191.7891 Z" stroke="none"/>
      </g>
    </g>
    <g id="y.edge.13">
      <g fill="red" stroke-miterlimit="1.45" transform="matrix(0.9655,0,0,0.9655,24.1379,9.6552)" stroke-linecap="butt" stroke="red">
        <path fill="none" d="M94.25 219.7109 L94.25 199.75 L47.5 199.75 L47.5 187.7891"/>
        <path d="M47.5 179.7891 L42.5 191.7891 L47.5 188.7891 L52.5 191.7891 Z" stroke="none"/>
      </g>
    </g>
    <g id="y.edge.14">
      <g stroke-miterlimit="1.45" transform="matrix(0.9655,0,0,0.9655,24.1379,9.6552)" stroke-linecap="butt">
        <path fill="none" d="M241 329.5859 L241 297.664"/>
        <path d="M241 289.664 L236 301.664 L241 298.664 L246 301.664 Z" stroke="none"/>
      </g>
    </g>
    <g id="y.edge.15">
      <g fill="red" stroke-miterlimit="1.45" transform="matrix(0.9655,0,0,0.9655,24.1379,9.6552)" stroke-linecap="butt" stroke="red">
        <path fill="none" d="M118 329.5859 L118 297.664"/>
        <path d="M118 289.664 L113 301.664 L118 298.664 L123 301.664 Z" stroke="none"/>
      </g>
    </g>
    <g id="y.edge.16">
      <g stroke-miterlimit="1.45" transform="matrix(0.9655,0,0,0.9655,24.1379,9.6552)" stroke-linecap="butt">
        <path fill="none" d="M701 329.5859 L701 297.664"/>
        <path d="M701 289.664 L696 301.664 L701 298.664 L706 301.664 Z" stroke="none"/>
      </g>
    </g>
    <g id="y.edge.17">
      <g stroke-miterlimit="1.45" transform="matrix(0.9655,0,0,0.9655,24.1379,9.6552)" stroke-linecap="butt">
        <path fill="none" d="M816 329.5859 L816 297.664"/>
        <path d="M816 289.664 L811 301.664 L816 298.664 L821 301.664 Z" stroke="none"/>
      </g>
    </g>
    <g id="y.edge.18">
      <g stroke-miterlimit="1.45" transform="matrix(0.9655,0,0,0.9655,24.1379,9.6552)" stroke-linecap="butt">
        <path fill="none" d="M1046 329.5859 L1046 297.664"/>
        <path d="M1046 289.664 L1041 301.664 L1046 298.664 L1051 301.664 Z" stroke="none"/>
      </g>
    </g>
    <g id="y.edge.19">
      <g fill="red" stroke-miterlimit="1.45" transform="matrix(0.9655,0,0,0.9655,24.1379,9.6552)" stroke-linecap="butt" stroke="red">
        <path fill="none" d="M47.5 109.8359 L47.5 77.914"/>
        <path d="M47.5 69.914 L42.5 81.914 L47.5 78.914 L52.5 81.914 Z" stroke="none"/>
      </g>
    </g>
  </g>
</svg>
