<?xml version="1.0" encoding="UTF-8"?><svg xmlns="http://www.w3.org/2000/svg" xmlns:xlink="http://www.w3.org/1999/xlink" fill-opacity="1" color-rendering="auto" color-interpolation="auto" text-rendering="auto" stroke="black" stroke-linecap="square" width="1264" stroke-miterlimit="10" shape-rendering="auto" stroke-opacity="1" fill="black" stroke-dasharray="none" font-weight="normal" stroke-width="1" height="790" font-family="'Dialog'" font-style="normal" stroke-linejoin="miter" font-size="12" stroke-dashoffset="0" image-rendering="auto" style="background-color:white">
  <!--Generated by ySVG-->
  <defs id="genericDefs"/>
  <g>
    <defs id="defs1">
      <clipPath clipPathUnits="userSpaceOnUse" id="clipPath1">
        <path d="M0 0 L1264 0 L1264 790 L0 790 L0 0 Z"/>
      </clipPath>
    </defs>
    <g id="y.node.0">
      <g fill="white" transform="matrix(0.9753,0,0,0.9753,15.6049,9.7531)" stroke="white">
        <rect width="88" x="588" height="69" y="719" stroke="none"/>
      </g>
      <g transform="matrix(0.9753,0,0,0.9753,15.6049,9.7531)">
        <rect fill="none" width="88" x="588" height="69" y="719"/>
      </g>
      <g id="bla">
        <g font-family="sans-serif" transform="matrix(0.9753,0,0,0.9753,15.6049,9.7531)">
          <text xml:space="preserve" x="617" y="737.3887" stroke="none">main</text>
          <text xml:space="preserve" x="595" y="751.3574" stroke="none">PROG: 2084</text>
          <text xml:space="preserve" x="597" y="765.3262" stroke="none">STACK: 176</text>
          <text xml:space="preserve" x="595.5" y="779.2949" stroke="none">FRAME: 176</text>
        </g>
      </g>
    </g>
    <g id="y.node.1">
      <g fill="white" transform="matrix(0.9753,0,0,0.9753,15.6049,9.7531)" stroke="white">
        <rect width="87" x="963" height="69" y="559" stroke="none"/>
        <rect x="963" y="559" fill="none" width="87" height="69" stroke="black"/>
      </g>
      <g id="bla">
        <g font-family="sans-serif" transform="matrix(0.9753,0,0,0.9753,15.6049,9.7531)">
          <text xml:space="preserve" x="985.5" y="577.5137" stroke="none">Proc_1</text>
          <text xml:space="preserve" x="973.5" y="591.4824" stroke="none">PROG: 376</text>
          <text xml:space="preserve" x="975.5" y="605.4512" stroke="none">STACK: 16</text>
          <text xml:space="preserve" x="970" y="619.4199" stroke="none">FRAME: 192</text>
        </g>
      </g>
    </g>
    <g id="y.node.2">
      <g fill="white" transform="matrix(0.9753,0,0,0.9753,15.6049,9.7531)" stroke="white">
        <rect width="87" x="749" height="69" y="559" stroke="none"/>
        <rect x="749" y="559" fill="none" width="87" height="69" stroke="black"/>
      </g>
      <g id="bla">
        <g font-family="sans-serif" transform="matrix(0.9753,0,0,0.9753,15.6049,9.7531)">
          <text xml:space="preserve" x="771.5" y="577.5137" stroke="none">Proc_7</text>
          <text xml:space="preserve" x="763.5" y="591.4824" stroke="none">PROG: 16</text>
          <text xml:space="preserve" x="765.5" y="605.4512" stroke="none">STACK: 0</text>
          <text xml:space="preserve" x="756" y="619.4199" stroke="none">FRAME: 176</text>
        </g>
      </g>
    </g>
    <g id="y.node.3">
      <g fill="white" transform="matrix(0.9753,0,0,0.9753,15.6049,9.7531)" stroke="white">
        <rect width="87" x="1016" height="69" y="449" stroke="none"/>
        <rect x="1016" y="449" fill="none" width="87" height="69" stroke="black"/>
      </g>
      <g id="bla">
        <g font-family="sans-serif" transform="matrix(0.9753,0,0,0.9753,15.6049,9.7531)">
          <text xml:space="preserve" x="1039" y="467.6387" stroke="none">Proc_6</text>
          <text xml:space="preserve" x="1031" y="481.6074" stroke="none">PROG: 84</text>
          <text xml:space="preserve" x="1033" y="495.5762" stroke="none">STACK: 0</text>
          <text xml:space="preserve" x="1023.5" y="509.5449" stroke="none">FRAME: 192</text>
        </g>
      </g>
    </g>
    <g id="y.node.4">
      <g fill="white" transform="matrix(0.9753,0,0,0.9753,15.6049,9.7531)" stroke="white">
        <rect width="87" x="428" height="69" y="559" stroke="none"/>
        <rect x="428" y="559" fill="none" width="87" height="69" stroke="black"/>
      </g>
      <g id="bla">
        <g font-family="sans-serif" transform="matrix(0.9753,0,0,0.9753,15.6049,9.7531)">
          <text xml:space="preserve" x="451.5" y="577.5137" stroke="none">malloc</text>
          <text xml:space="preserve" x="442.5" y="591.4824" stroke="none">PROG: 16</text>
          <text xml:space="preserve" x="444.5" y="605.4512" stroke="none">STACK: 0</text>
          <text xml:space="preserve" x="435" y="619.4199" stroke="none">FRAME: 176</text>
        </g>
      </g>
    </g>
    <g id="y.node.5">
      <g fill="white" transform="matrix(0.9753,0,0,0.9753,15.6049,9.7531)" stroke="white">
        <rect width="87" x="107" height="69" y="559" stroke="none"/>
        <rect x="107" y="559" fill="none" width="87" height="69" stroke="black"/>
      </g>
      <g id="bla">
        <g font-family="sans-serif" transform="matrix(0.9753,0,0,0.9753,15.6049,9.7531)">
          <text xml:space="preserve" x="126" y="577.5137" stroke="none">putchar</text>
          <text xml:space="preserve" x="121.5" y="591.4824" stroke="none">PROG: 24</text>
          <text xml:space="preserve" x="123.5" y="605.4512" stroke="none">STACK: 0</text>
          <text xml:space="preserve" x="114" y="619.4199" stroke="none">FRAME: 176</text>
        </g>
      </g>
    </g>
    <g id="y.node.6">
      <g fill="white" transform="matrix(0.9753,0,0,0.9753,15.6049,9.7531)" stroke="white">
        <rect width="87" x="214" height="69" y="559" stroke="none"/>
        <rect x="214" y="559" fill="none" width="87" height="69" stroke="black"/>
      </g>
      <g id="bla">
        <g font-family="sans-serif" transform="matrix(0.9753,0,0,0.9753,15.6049,9.7531)">
          <text xml:space="preserve" x="243.5" y="577.5137" stroke="none">puts</text>
          <text xml:space="preserve" x="228.5" y="591.4824" stroke="none">PROG: 16</text>
          <text xml:space="preserve" x="230.5" y="605.4512" stroke="none">STACK: 0</text>
          <text xml:space="preserve" x="221" y="619.4199" stroke="none">FRAME: 176</text>
        </g>
      </g>
    </g>
    <g id="y.node.7">
      <g fill="white" transform="matrix(0.9753,0,0,0.9753,15.6049,9.7531)" stroke="white">
        <rect width="87" x="321" height="69" y="559" stroke="none"/>
        <rect x="321" y="559" fill="none" width="87" height="69" stroke="black"/>
      </g>
      <g id="bla">
        <g font-family="sans-serif" transform="matrix(0.9753,0,0,0.9753,15.6049,9.7531)">
          <text xml:space="preserve" x="348" y="577.5137" stroke="none">printf</text>
          <text xml:space="preserve" x="335.5" y="591.4824" stroke="none">PROG: 80</text>
          <text xml:space="preserve" x="333.5" y="605.4512" stroke="none">STACK: 64</text>
          <text xml:space="preserve" x="328" y="619.4199" stroke="none">FRAME: 240</text>
        </g>
      </g>
    </g>
    <g id="y.node.8">
      <g fill="white" transform="matrix(0.9753,0,0,0.9753,15.6049,9.7531)" stroke="white">
        <rect width="87" x="535" height="69" y="559" stroke="none"/>
        <rect x="535" y="559" fill="none" width="87" height="69" stroke="black"/>
      </g>
      <g id="bla">
        <g font-family="sans-serif" transform="matrix(0.9753,0,0,0.9753,15.6049,9.7531)">
          <text xml:space="preserve" x="565" y="577.5137" stroke="none">time</text>
          <text xml:space="preserve" x="553.5" y="591.4824" stroke="none">PROG: 8</text>
          <text xml:space="preserve" x="551.5" y="605.4512" stroke="none">STACK: 0</text>
          <text xml:space="preserve" x="542" y="619.4199" stroke="none">FRAME: 176</text>
        </g>
      </g>
    </g>
    <g id="y.node.9">
      <g fill="white" transform="matrix(0.9753,0,0,0.9753,15.6049,9.7531)" stroke="white">
        <rect width="87" x="642" height="69" y="559" stroke="none"/>
        <rect x="642" y="559" fill="none" width="87" height="69" stroke="black"/>
      </g>
      <g id="bla">
        <g font-family="sans-serif" transform="matrix(0.9753,0,0,0.9753,15.6049,9.7531)">
          <text xml:space="preserve" x="672.5" y="577.5137" stroke="none">insn</text>
          <text xml:space="preserve" x="660.5" y="591.4824" stroke="none">PROG: 8</text>
          <text xml:space="preserve" x="658.5" y="605.4512" stroke="none">STACK: 0</text>
          <text xml:space="preserve" x="649" y="619.4199" stroke="none">FRAME: 176</text>
        </g>
      </g>
    </g>
    <g id="y.node.10">
      <g fill="white" transform="matrix(0.9753,0,0,0.9753,15.6049,9.7531)" stroke="white">
        <rect width="87" x="0" height="69" y="559" stroke="none"/>
        <rect x="0" y="559" fill="none" width="87" height="69" stroke="black"/>
      </g>
      <g id="bla">
        <g font-family="sans-serif" transform="matrix(0.9753,0,0,0.9753,15.6049,9.7531)">
          <text xml:space="preserve" x="21.5" y="577.5137" stroke="none">Func_2</text>
          <text xml:space="preserve" x="14.5" y="591.4824" stroke="none">PROG: 68</text>
          <text xml:space="preserve" x="12.5" y="605.4512" stroke="none">STACK: 16</text>
          <text xml:space="preserve" x="7" y="619.4199" stroke="none">FRAME: 192</text>
        </g>
      </g>
    </g>
    <g id="y.node.11">
      <g fill="white" transform="matrix(0.9753,0,0,0.9753,15.6049,9.7531)" stroke="white">
        <rect width="87" x="856" height="69" y="559" stroke="none"/>
        <rect x="856" y="559" fill="none" width="87" height="69" stroke="black"/>
      </g>
      <g id="bla">
        <g font-family="sans-serif" transform="matrix(0.9753,0,0,0.9753,15.6049,9.7531)">
          <text xml:space="preserve" x="878.5" y="577.5137" stroke="none">Proc_8</text>
          <text xml:space="preserve" x="866.5" y="591.4824" stroke="none">PROG: 104</text>
          <text xml:space="preserve" x="872.5" y="605.4512" stroke="none">STACK: 0</text>
          <text xml:space="preserve" x="863" y="619.4199" stroke="none">FRAME: 176</text>
        </g>
      </g>
    </g>
    <g id="y.node.12">
      <g fill="white" transform="matrix(0.9753,0,0,0.9753,15.6049,9.7531)" stroke="white">
        <rect width="87" x="1070" height="69" y="559" stroke="none"/>
        <rect x="1070" y="559" fill="none" width="87" height="69" stroke="black"/>
      </g>
      <g id="bla">
        <g font-family="sans-serif" transform="matrix(0.9753,0,0,0.9753,15.6049,9.7531)">
          <text xml:space="preserve" x="1091.5" y="577.5137" stroke="none">Func_1</text>
          <text xml:space="preserve" x="1084.5" y="591.4824" stroke="none">PROG: 36</text>
          <text xml:space="preserve" x="1086.5" y="605.4512" stroke="none">STACK: 0</text>
          <text xml:space="preserve" x="1077" y="619.4199" stroke="none">FRAME: 176</text>
        </g>
      </g>
    </g>
    <g id="y.node.13">
      <g fill="white" transform="matrix(0.9753,0,0,0.9753,15.6049,9.7531)" stroke="white">
        <rect width="87" x="0" height="69" y="449" stroke="none"/>
        <rect x="0" y="449" fill="none" width="87" height="69" stroke="black"/>
      </g>
      <g id="bla">
        <g font-family="sans-serif" transform="matrix(0.9753,0,0,0.9753,15.6049,9.7531)">
          <text xml:space="preserve" x="22" y="467.6387" stroke="none">strcmp</text>
          <text xml:space="preserve" x="10.5" y="481.6074" stroke="none">PROG: 380</text>
          <text xml:space="preserve" x="16.5" y="495.5762" stroke="none">STACK: 0</text>
          <text xml:space="preserve" x="7" y="509.5449" stroke="none">FRAME: 192</text>
        </g>
      </g>
    </g>
    <g id="y.node.14">
      <g fill="white" transform="matrix(0.9753,0,0,0.9753,15.6049,9.7531)" stroke="white">
        <rect width="88" x="427" height="69" y="449" stroke="none"/>
        <rect x="427" y="449" fill="none" width="88" height="69" stroke="black"/>
      </g>
      <g id="bla">
        <g font-family="sans-serif" transform="matrix(0.9753,0,0,0.9753,15.6049,9.7531)">
          <text xml:space="preserve" x="443" y="467.6387" stroke="none">_malloc_r</text>
          <text xml:space="preserve" x="434.5" y="481.6074" stroke="none">PROG: 1976</text>
          <text xml:space="preserve" x="440.5" y="495.5762" stroke="none">STACK: 48</text>
          <text xml:space="preserve" x="435" y="509.5449" stroke="none">FRAME: 224</text>
        </g>
      </g>
    </g>
    <g id="y.node.15">
      <g fill="white" transform="matrix(0.9753,0,0,0.9753,15.6049,9.7531)" stroke="white">
        <rect width="87" x="488" height="69" y="329" stroke="none"/>
        <rect x="488" y="329" fill="none" width="87" height="69" stroke="black"/>
      </g>
      <g id="bla">
        <g font-family="sans-serif" transform="matrix(0.9753,0,0,0.9753,15.6049,9.7531)">
          <text xml:space="preserve" x="511" y="347.7637" stroke="none">_free_r</text>
          <text xml:space="preserve" x="499" y="361.7324" stroke="none">PROG: 788</text>
          <text xml:space="preserve" x="501" y="375.7012" stroke="none">STACK: 16</text>
          <text xml:space="preserve" x="495.5" y="389.6699" stroke="none">FRAME: 240</text>
        </g>
      </g>
    </g>
    <g id="y.node.16">
      <g fill="white" transform="matrix(0.9753,0,0,0.9753,15.6049,9.7531)" stroke="white">
        <rect width="97" x="367" height="69" y="329" stroke="none"/>
        <rect x="367" y="329" fill="none" width="97" height="69" stroke="black"/>
      </g>
      <g id="bla">
        <g font-family="sans-serif" transform="matrix(0.9753,0,0,0.9753,15.6049,9.7531)">
          <text xml:space="preserve" x="374" y="347.7637" stroke="none">__malloc_lock</text>
          <text xml:space="preserve" x="390.5" y="361.7324" stroke="none">PROG: 4</text>
          <text xml:space="preserve" x="388.5" y="375.7012" stroke="none">STACK: 0</text>
          <text xml:space="preserve" x="379" y="389.6699" stroke="none">FRAME: 224</text>
        </g>
      </g>
    </g>
    <g id="y.node.17">
      <g fill="white" transform="matrix(0.9753,0,0,0.9753,15.6049,9.7531)" stroke="white">
        <rect width="113" x="595" height="69" y="329" stroke="none"/>
        <rect x="595" y="329" fill="none" width="113" height="69" stroke="black"/>
      </g>
      <g id="bla">
        <g font-family="sans-serif" transform="matrix(0.9753,0,0,0.9753,15.6049,9.7531)">
          <text xml:space="preserve" x="602.5" y="347.7637" stroke="none">__malloc_unlock</text>
          <text xml:space="preserve" x="627" y="361.7324" stroke="none">PROG: 4</text>
          <text xml:space="preserve" x="625" y="375.7012" stroke="none">STACK: 0</text>
          <text xml:space="preserve" x="615.5" y="389.6699" stroke="none">FRAME: 224</text>
        </g>
      </g>
    </g>
    <g id="y.node.18">
      <g fill="white" transform="matrix(0.9753,0,0,0.9753,15.6049,9.7531)" stroke="white">
        <rect width="87" x="255" height="69" y="329" stroke="none"/>
        <rect x="255" y="329" fill="none" width="87" height="69" stroke="black"/>
      </g>
      <g id="bla">
        <g font-family="sans-serif" transform="matrix(0.9753,0,0,0.9753,15.6049,9.7531)">
          <text xml:space="preserve" x="277" y="347.7637" stroke="none">_sbrk_r</text>
          <text xml:space="preserve" x="270" y="361.7324" stroke="none">PROG: 96</text>
          <text xml:space="preserve" x="268" y="375.7012" stroke="none">STACK: 16</text>
          <text xml:space="preserve" x="262.5" y="389.6699" stroke="none">FRAME: 240</text>
        </g>
      </g>
    </g>
    <g id="y.node.19">
      <g fill="white" transform="matrix(0.9753,0,0,0.9753,15.6049,9.7531)" stroke="white">
        <rect width="87" x="255" height="69" y="219" stroke="none"/>
        <rect x="255" y="219" fill="none" width="87" height="69" stroke="black"/>
      </g>
      <g id="bla">
        <g font-family="sans-serif" transform="matrix(0.9753,0,0,0.9753,15.6049,9.7531)">
          <text xml:space="preserve" x="282.5" y="237.8887" stroke="none">_sbrk</text>
          <text xml:space="preserve" x="270" y="251.8574" stroke="none">PROG: 84</text>
          <text xml:space="preserve" x="272" y="265.8262" stroke="none">STACK: 0</text>
          <text xml:space="preserve" x="262.5" y="279.7949" stroke="none">FRAME: 240</text>
        </g>
      </g>
    </g>
    <g id="y.node.20">
      <g fill="white" transform="matrix(0.9753,0,0,0.9753,15.6049,9.7531)" stroke="white">
        <rect width="101" x="362" height="69" y="219" stroke="none"/>
        <rect x="362" y="219" fill="none" width="101" height="69" stroke="black"/>
      </g>
      <g id="bla">
        <g font-family="sans-serif" transform="matrix(0.9753,0,0,0.9753,15.6049,9.7531)">
          <text xml:space="preserve" x="369.5" y="237.8887" stroke="none">_malloc_trim_r</text>
          <text xml:space="preserve" x="380" y="251.8574" stroke="none">PROG: 320</text>
          <text xml:space="preserve" x="382" y="265.8262" stroke="none">STACK: 32</text>
          <text xml:space="preserve" x="376.5" y="279.7949" stroke="none">FRAME: 272</text>
        </g>
      </g>
    </g>
    <g id="y.node.21">
      <g fill="white" transform="matrix(0.9753,0,0,0.9753,15.6049,9.7531)" stroke="white">
        <rect width="97" x="483" height="69" y="219" stroke="none"/>
        <rect x="483" y="219" fill="none" width="97" height="69" stroke="black"/>
      </g>
      <g id="bla">
        <g font-family="sans-serif" transform="matrix(0.9753,0,0,0.9753,15.6049,9.7531)">
          <text xml:space="preserve" x="490.5" y="237.8887" stroke="none">__malloc_lock</text>
          <text xml:space="preserve" x="507" y="251.8574" stroke="none">PROG: 4</text>
          <text xml:space="preserve" x="505" y="265.8262" stroke="none">STACK: 0</text>
          <text xml:space="preserve" x="495.5" y="279.7949" stroke="none">FRAME: 240</text>
        </g>
      </g>
    </g>
    <g id="y.node.22">
      <g fill="white" transform="matrix(0.9753,0,0,0.9753,15.6049,9.7531)" stroke="white">
        <rect width="113" x="600" height="69" y="219" stroke="none"/>
        <rect x="600" y="219" fill="none" width="113" height="69" stroke="black"/>
      </g>
      <g id="bla">
        <g font-family="sans-serif" transform="matrix(0.9753,0,0,0.9753,15.6049,9.7531)">
          <text xml:space="preserve" x="607.5" y="237.8887" stroke="none">__malloc_unlock</text>
          <text xml:space="preserve" x="632" y="251.8574" stroke="none">PROG: 4</text>
          <text xml:space="preserve" x="630" y="265.8262" stroke="none">STACK: 0</text>
          <text xml:space="preserve" x="620.5" y="279.7949" stroke="none">FRAME: 240</text>
        </g>
      </g>
    </g>
    <g id="y.node.23">
      <g fill="white" transform="matrix(0.9753,0,0,0.9753,15.6049,9.7531)" stroke="white">
        <rect width="97" x="364" height="69" y="109" stroke="none"/>
        <rect x="364" y="109" fill="none" width="97" height="69" stroke="black"/>
      </g>
      <g id="bla">
        <g font-family="sans-serif" transform="matrix(0.9753,0,0,0.9753,15.6049,9.7531)">
          <text xml:space="preserve" x="371.5" y="128.0137" stroke="none">__malloc_lock</text>
          <text xml:space="preserve" x="388" y="141.9824" stroke="none">PROG: 4</text>
          <text xml:space="preserve" x="386" y="155.9512" stroke="none">STACK: 0</text>
          <text xml:space="preserve" x="376.5" y="169.9199" stroke="none">FRAME: 272</text>
        </g>
      </g>
    </g>
    <g id="y.node.24">
      <g fill="white" transform="matrix(0.9753,0,0,0.9753,15.6049,9.7531)" stroke="white">
        <rect width="87" x="257" height="69" y="109" stroke="none"/>
        <rect x="257" y="109" fill="none" width="87" height="69" stroke="black"/>
      </g>
      <g id="bla">
        <g font-family="sans-serif" transform="matrix(0.9753,0,0,0.9753,15.6049,9.7531)">
          <text xml:space="preserve" x="279" y="128.0137" stroke="none">_sbrk_r</text>
          <text xml:space="preserve" x="272" y="141.9824" stroke="none">PROG: 96</text>
          <text xml:space="preserve" x="270" y="155.9512" stroke="none">STACK: 16</text>
          <text xml:space="preserve" x="264.5" y="169.9199" stroke="none">FRAME: 288</text>
        </g>
      </g>
    </g>
    <g id="y.node.25">
      <g fill="white" transform="matrix(0.9753,0,0,0.9753,15.6049,9.7531)" stroke="white">
        <rect width="87" x="257" height="69" y="0" stroke="none"/>
        <rect x="257" y="0" fill="none" width="87" height="69" stroke="black"/>
      </g>
      <g id="bla">
        <g font-family="sans-serif" transform="matrix(0.9753,0,0,0.9753,15.6049,9.7531)">
          <text xml:space="preserve" x="284.5" y="18.1387" stroke="none">_sbrk</text>
          <text xml:space="preserve" x="272" y="32.1074" stroke="none">PROG: 84</text>
          <text xml:space="preserve" x="274" y="46.0762" stroke="none">STACK: 0</text>
          <text xml:space="preserve" x="264.5" y="60.0449" stroke="none">FRAME: 288</text>
        </g>
      </g>
    </g>
    <g id="y.node.26">
      <g fill="white" transform="matrix(0.9753,0,0,0.9753,15.6049,9.7531)" stroke="white">
        <rect width="113" x="481" height="69" y="109" stroke="none"/>
        <rect x="481" y="109" fill="none" width="113" height="69" stroke="black"/>
      </g>
      <g id="bla">
        <g font-family="sans-serif" transform="matrix(0.9753,0,0,0.9753,15.6049,9.7531)">
          <text xml:space="preserve" x="488.5" y="128.0137" stroke="none">__malloc_unlock</text>
          <text xml:space="preserve" x="513" y="141.9824" stroke="none">PROG: 4</text>
          <text xml:space="preserve" x="511" y="155.9512" stroke="none">STACK: 0</text>
          <text xml:space="preserve" x="501.5" y="169.9199" stroke="none">FRAME: 272</text>
        </g>
      </g>
    </g>
    <g id="y.node.27">
      <g fill="white" transform="matrix(0.9753,0,0,0.9753,15.6049,9.7531)" stroke="white">
        <rect width="87" x="909" height="69" y="449" stroke="none"/>
        <rect x="909" y="449" fill="none" width="87" height="69" stroke="black"/>
      </g>
      <g id="bla">
        <g font-family="sans-serif" transform="matrix(0.9753,0,0,0.9753,15.6049,9.7531)">
          <text xml:space="preserve" x="932" y="467.6387" stroke="none">Proc_7</text>
          <text xml:space="preserve" x="924" y="481.6074" stroke="none">PROG: 16</text>
          <text xml:space="preserve" x="926" y="495.5762" stroke="none">STACK: 0</text>
          <text xml:space="preserve" x="916.5" y="509.5449" stroke="none">FRAME: 192</text>
        </g>
      </g>
    </g>
    <g id="y.node.28">
      <g fill="white" transform="matrix(0.9753,0,0,0.9753,15.6049,9.7531)" stroke="white">
        <rect width="87" x="1177" height="69" y="559" stroke="none"/>
        <rect x="1177" y="559" fill="none" width="87" height="69" stroke="black"/>
      </g>
      <g id="bla">
        <g font-family="sans-serif" transform="matrix(0.9753,0,0,0.9753,15.6049,9.7531)">
          <text xml:space="preserve" x="1199.5" y="577.5137" stroke="none">Proc_6</text>
          <text xml:space="preserve" x="1191.5" y="591.4824" stroke="none">PROG: 84</text>
          <text xml:space="preserve" x="1193.5" y="605.4512" stroke="none">STACK: 0</text>
          <text xml:space="preserve" x="1184" y="619.4199" stroke="none">FRAME: 176</text>
        </g>
      </g>
    </g>
    <g id="y.edge.0">
      <g fill="red" stroke-miterlimit="1.45" transform="matrix(0.9753,0,0,0.9753,15.6049,9.7531)" stroke-linecap="butt" stroke="red">
        <path fill="none" d="M621 719.2207 L621 659.25 L471.5 659.25 L471.5 637.2793"/>
        <path d="M471.5 629.2793 L466.5 641.2793 L471.5 638.2793 L476.5 641.2793 Z" stroke="none"/>
      </g>
    </g>
    <g id="y.edge.1">
      <g stroke-miterlimit="1.45" transform="matrix(0.9753,0,0,0.9753,15.6049,9.7531)" stroke-linecap="butt">
        <path fill="none" d="M599 719.2207 L599 689.25 L150.5 689.25 L150.5 637.2793"/>
        <path d="M150.5 629.2793 L145.5 641.2793 L150.5 638.2793 L155.5 641.2793 Z" stroke="none"/>
      </g>
    </g>
    <g id="y.edge.2">
      <g stroke-miterlimit="1.45" transform="matrix(0.9753,0,0,0.9753,15.6049,9.7531)" stroke-linecap="butt">
        <path fill="none" d="M606.3333 719.2109 L606.3333 679.25 L257.5 679.25 L257.5 637.2988"/>
        <path d="M257.5 629.2988 L252.5 641.2988 L257.5 638.2988 L262.5 641.2988 Z" stroke="none"/>
      </g>
    </g>
    <g id="y.edge.3">
      <g stroke-miterlimit="1.45" transform="matrix(0.9753,0,0,0.9753,15.6049,9.7531)" stroke-linecap="butt">
        <path fill="none" d="M613.6667 719.2012 L613.6667 669.25 L364.5 669.25 L364.5 637.2891"/>
        <path d="M364.5 629.2891 L359.5 641.2891 L364.5 638.2891 L369.5 641.2891 Z" stroke="none"/>
      </g>
    </g>
    <g id="y.edge.4">
      <g stroke-miterlimit="1.45" transform="matrix(0.9753,0,0,0.9753,15.6049,9.7531)" stroke-linecap="butt">
        <path fill="none" d="M628.3333 719.2158 L628.3333 649.25 L578.5 649.25 L578.5 637.2891"/>
        <path d="M578.5 629.2891 L573.5 641.2891 L578.5 638.2891 L583.5 641.2891 Z" stroke="none"/>
      </g>
    </g>
    <g id="y.edge.5">
      <g stroke-miterlimit="1.45" transform="matrix(0.9753,0,0,0.9753,15.6049,9.7531)" stroke-linecap="butt">
        <path fill="none" d="M635.6667 719.2158 L635.6667 649.25 L685.5 649.25 L685.5 637.2891"/>
        <path d="M685.5 629.2891 L680.5 641.2891 L685.5 638.2891 L690.5 641.2891 Z" stroke="none"/>
      </g>
    </g>
    <g id="y.edge.6">
      <g stroke-miterlimit="1.45" transform="matrix(0.9753,0,0,0.9753,15.6049,9.7531)" stroke-linecap="butt">
        <path fill="none" d="M591.6667 719.2109 L591.6667 699.25 L43.5 699.25 L43.5 637.2842"/>
        <path d="M43.5 629.2842 L38.5 641.2842 L43.5 638.2842 L48.5 641.2842 Z" stroke="none"/>
      </g>
    </g>
    <g id="y.edge.7">
      <g stroke-miterlimit="1.45" transform="matrix(0.9753,0,0,0.9753,15.6049,9.7531)" stroke-linecap="butt">
        <path fill="none" d="M643 719.2207 L643 659.25 L792.5 659.25 L792.5 637.2793"/>
        <path d="M792.5 629.2793 L787.5 641.2793 L792.5 638.2793 L797.5 641.2793 Z" stroke="none"/>
      </g>
    </g>
    <g id="y.edge.8">
      <g stroke-miterlimit="1.45" transform="matrix(0.9753,0,0,0.9753,15.6049,9.7531)" stroke-linecap="butt">
        <path fill="none" d="M650.3333 719.2012 L650.3333 669.25 L899.5 669.25 L899.5 637.2891"/>
        <path d="M899.5 629.2891 L894.5 641.2891 L899.5 638.2891 L904.5 641.2891 Z" stroke="none"/>
      </g>
    </g>
    <g id="y.edge.9">
      <g stroke-miterlimit="1.45" transform="matrix(0.9753,0,0,0.9753,15.6049,9.7531)" stroke-linecap="butt">
        <path fill="none" d="M657.6667 719.2109 L657.6667 679.25 L1006.5 679.25 L1006.5 637.2988"/>
        <path d="M1006.5 629.2988 L1001.5 641.2988 L1006.5 638.2988 L1011.5 641.2988 Z" stroke="none"/>
      </g>
    </g>
    <g id="y.edge.10">
      <g stroke-miterlimit="1.45" transform="matrix(0.9753,0,0,0.9753,15.6049,9.7531)" stroke-linecap="butt">
        <path fill="none" d="M665 719.2207 L665 689.25 L1113.5 689.25 L1113.5 637.2793"/>
        <path d="M1113.5 629.2793 L1108.5 641.2793 L1113.5 638.2793 L1118.5 641.2793 Z" stroke="none"/>
      </g>
    </g>
    <g id="y.edge.11">
      <g stroke-miterlimit="1.45" transform="matrix(0.9753,0,0,0.9753,15.6049,9.7531)" stroke-linecap="butt">
        <path fill="none" d="M672.3333 719.2109 L672.3333 699.25 L1220.5 699.25 L1220.5 637.2842"/>
        <path d="M1220.5 629.2842 L1215.5 641.2842 L1220.5 638.2842 L1225.5 641.2842 Z" stroke="none"/>
      </g>
    </g>
    <g id="y.edge.12">
      <g stroke-miterlimit="1.45" transform="matrix(0.9753,0,0,0.9753,15.6049,9.7531)" stroke-linecap="butt">
        <path fill="none" d="M984.75 559.3359 L984.75 539.375 L953 539.375 L953 527.4141"/>
        <path d="M953 519.4141 L948 531.4141 L953 528.4141 L958 531.4141 Z" stroke="none"/>
      </g>
    </g>
    <g id="y.edge.13">
      <g stroke-miterlimit="1.45" transform="matrix(0.9753,0,0,0.9753,15.6049,9.7531)" stroke-linecap="butt">
        <path fill="none" d="M1028.25 559.3359 L1028.25 539.375 L1060 539.375 L1060 527.4141"/>
        <path d="M1060 519.4141 L1055 531.4141 L1060 528.4141 L1065 531.4141 Z" stroke="none"/>
      </g>
    </g>
    <g id="y.edge.14">
      <g fill="red" stroke-miterlimit="1.45" transform="matrix(0.9753,0,0,0.9753,15.6049,9.7531)" stroke-linecap="butt" stroke="red">
        <path fill="none" d="M471.5 559.3359 L471.5 527.414"/>
        <path d="M471.5 519.414 L466.5 531.414 L471.5 528.414 L476.5 531.414 Z" stroke="none"/>
      </g>
    </g>
    <g id="y.edge.15">
      <g stroke-miterlimit="1.45" transform="matrix(0.9753,0,0,0.9753,15.6049,9.7531)" stroke-linecap="butt">
        <path fill="none" d="M43.5 559.3359 L43.5 527.414"/>
        <path d="M43.5 519.414 L38.5 531.414 L43.5 528.414 L48.5 531.414 Z" stroke="none"/>
      </g>
    </g>
    <g id="y.edge.16">
      <g stroke-miterlimit="1.45" transform="matrix(0.9753,0,0,0.9753,15.6049,9.7531)" stroke-linecap="butt">
        <path fill="none" d="M460.5 449.4707 L460.5 419.5 L415.5 419.5 L415.5 407.5391"/>
        <path d="M415.5 399.5391 L410.5 411.5391 L415.5 408.5391 L420.5 411.5391 Z" stroke="none"/>
      </g>
    </g>
    <g id="y.edge.17">
      <g stroke-miterlimit="1.45" transform="matrix(0.9753,0,0,0.9753,15.6049,9.7531)" stroke-linecap="butt">
        <path fill="none" d="M504.5 449.4609 L504.5 429.5 L652 429.5 L652 407.5293"/>
        <path d="M652 399.5293 L647 411.5293 L652 408.5293 L657 411.5293 Z" stroke="none"/>
      </g>
    </g>
    <g id="y.edge.18">
      <g stroke-miterlimit="1.45" transform="matrix(0.9753,0,0,0.9753,15.6049,9.7531)" stroke-linecap="butt">
        <path fill="none" d="M438.5 449.4609 L438.5 429.5 L299 429.5 L299 407.5293"/>
        <path d="M299 399.5293 L294 411.5293 L299 408.5293 L304 411.5293 Z" stroke="none"/>
      </g>
    </g>
    <g id="y.edge.19">
      <g fill="red" stroke-miterlimit="1.45" transform="matrix(0.9753,0,0,0.9753,15.6049,9.7531)" stroke-linecap="butt" stroke="red">
        <path fill="none" d="M482.5 449.4707 L482.5 419.5 L532 419.5 L532 407.5391"/>
        <path d="M532 399.5391 L527 411.5391 L532 408.5391 L537 411.5391 Z" stroke="none"/>
      </g>
    </g>
    <g id="y.edge.20">
      <g stroke-miterlimit="1.45" transform="matrix(0.9753,0,0,0.9753,15.6049,9.7531)" stroke-linecap="butt">
        <path fill="none" d="M532 329.5859 L532 297.664"/>
        <path d="M532 289.664 L527 301.664 L532 298.664 L537 301.664 Z" stroke="none"/>
      </g>
    </g>
    <g id="y.edge.21">
      <g stroke-miterlimit="1.45" transform="matrix(0.9753,0,0,0.9753,15.6049,9.7531)" stroke-linecap="butt">
        <path fill="none" d="M561 329.5859 L561 309.625 L657 309.625 L657 297.6641"/>
        <path d="M657 289.6641 L652 301.6641 L657 298.6641 L662 301.6641 Z" stroke="none"/>
      </g>
    </g>
    <g id="y.edge.22">
      <g fill="red" stroke-miterlimit="1.45" transform="matrix(0.9753,0,0,0.9753,15.6049,9.7531)" stroke-linecap="butt" stroke="red">
        <path fill="none" d="M503 329.5859 L503 309.625 L413 309.625 L413 297.6641"/>
        <path d="M413 289.6641 L408 301.6641 L413 298.6641 L418 301.6641 Z" stroke="none"/>
      </g>
    </g>
    <g id="y.edge.23">
      <g stroke-miterlimit="1.45" transform="matrix(0.9753,0,0,0.9753,15.6049,9.7531)" stroke-linecap="butt">
        <path fill="none" d="M299 329.5859 L299 297.664"/>
        <path d="M299 289.664 L294 301.664 L299 298.664 L304 301.664 Z" stroke="none"/>
      </g>
    </g>
    <g id="y.edge.24">
      <g stroke-miterlimit="1.45" transform="matrix(0.9753,0,0,0.9753,15.6049,9.7531)" stroke-linecap="butt">
        <path fill="none" d="M413 219.7109 L413 187.789"/>
        <path d="M413 179.789 L408 191.789 L413 188.789 L418 191.789 Z" stroke="none"/>
      </g>
    </g>
    <g id="y.edge.25">
      <g fill="red" stroke-miterlimit="1.45" transform="matrix(0.9753,0,0,0.9753,15.6049,9.7531)" stroke-linecap="butt" stroke="red">
        <path fill="none" d="M379.3333 219.7109 L379.3333 199.75 L301 199.75 L301 187.7891"/>
        <path d="M301 179.7891 L296 191.7891 L301 188.7891 L306 191.7891 Z" stroke="none"/>
      </g>
    </g>
    <g id="y.edge.26">
      <g stroke-miterlimit="1.45" transform="matrix(0.9753,0,0,0.9753,15.6049,9.7531)" stroke-linecap="butt">
        <path fill="none" d="M446.6667 219.7109 L446.6667 199.75 L538 199.75 L538 187.7891"/>
        <path d="M538 179.7891 L533 191.7891 L538 188.7891 L543 191.7891 Z" stroke="none"/>
      </g>
    </g>
    <g id="y.edge.27">
      <g fill="red" stroke-miterlimit="1.45" transform="matrix(0.9753,0,0,0.9753,15.6049,9.7531)" stroke-linecap="butt" stroke="red">
        <path fill="none" d="M301 109.8359 L301 77.914"/>
        <path d="M301 69.914 L296 81.914 L301 78.914 L306 81.914 Z" stroke="none"/>
      </g>
    </g>
  </g>
</svg>
